<?xml version="1.0" standalone="no"?>
<!DOCTYPE svg PUBLIC "-//W3C//DTD SVG 20010904//EN"
 "http://www.w3.org/TR/2001/REC-SVG-20010904/DTD/svg10.dtd">
<svg version="1.0" xmlns="http://www.w3.org/2000/svg"
 width="700.000000pt" height="700.000000pt" viewBox="0 0 700.000000 700.000000"
 preserveAspectRatio="xMidYMid meet">
<metadata>
Created by potrace 1.14, written by Peter Selinger 2001-2017
</metadata>
<g transform="translate(0.000000,700.000000) scale(0.100000,-0.100000)"
fill="#000000" stroke="none">
<path d="M2937 4705 c-17 -5 -41 -25 -54 -43 -21 -31 -22 -44 -20 -165 2 -114
5 -136 22 -158 37 -49 92 -61 150 -33 39 18 65 72 65 134 l0 41 142 -3 143 -3
0 -475 0 -475 -80 -5 c-44 -3 -89 -11 -101 -17 -81 -47 -66 -180 24 -210 15
-5 144 -9 287 -8 254 1 262 1 293 23 19 14 35 37 42 60 13 48 13 48 -6 87 -21
46 -66 65 -153 65 l-71 0 0 480 0 480 139 0 138 0 6 -61 c4 -52 10 -67 36 -93
27 -26 39 -31 81 -31 43 0 54 5 82 33 l33 32 3 129 c4 142 -5 175 -55 208 -25
17 -69 18 -571 18 -348 1 -554 -3 -575 -10z"/>
<path d="M543 832 c-25 -20 -38 -61 -29 -97 7 -27 52 -55 89 -55 26 0 67 33
67 55 0 22 -14 18 -38 -10 -25 -29 -39 -31 -70 -9 -32 22 -30 78 3 100 23 15
65 12 65 -6 0 -12 29 -20 35 -10 3 5 -3 18 -15 30 -25 25 -77 26 -107 2z"/>
<path d="M1093 843 c-7 -3 -13 -11 -13 -18 0 -7 -6 -16 -12 -19 -10 -5 -10 -7
0 -12 6 -3 12 -23 12 -44 0 -54 8 -70 36 -70 27 0 32 17 9 26 -10 4 -15 20
-15 45 0 28 4 39 15 39 8 0 15 5 15 10 0 6 -6 10 -14 10 -8 0 -16 8 -18 18 -2
11 -9 17 -15 15z"/>
<path d="M1400 818 c0 -25 -3 -29 -12 -20 -31 31 -88 -1 -88 -49 0 -47 25 -68
80 -67 l50 1 0 84 c0 67 -3 83 -15 83 -10 0 -15 -10 -15 -32z m-8 -54 c19 -42
-15 -77 -49 -51 -16 12 -17 49 -1 65 19 19 37 14 50 -14z"/>
<path d="M1530 766 l0 -83 50 -2 c40 0 52 3 65 21 34 50 0 115 -56 104 -26 -5
-29 -3 -29 19 0 16 -6 25 -15 25 -12 0 -15 -16 -15 -84z m81 14 c23 -13 25
-53 3 -71 -33 -27 -72 33 -44 67 15 17 16 17 41 4z"/>
<path d="M1918 834 c-65 -35 -35 -154 38 -154 48 0 94 36 78 61 -9 15 -22 10
-29 -10 -8 -27 -53 -36 -76 -15 -27 24 -25 79 3 98 29 20 43 20 64 -1 19 -19
44 -26 44 -13 0 18 -45 50 -69 50 -14 -1 -38 -7 -53 -16z"/>
<path d="M2270 765 c0 -69 3 -85 15 -85 12 0 15 14 16 63 l0 62 23 -60 c16
-42 28 -60 41 -60 12 0 24 18 40 60 l24 60 0 -62 c1 -49 4 -63 16 -63 12 0 15
16 15 85 0 82 -1 85 -23 85 -20 0 -27 -10 -46 -65 -13 -36 -24 -65 -26 -65 -2
0 -13 29 -26 65 -19 55 -26 65 -46 65 -22 0 -23 -3 -23 -85z"/>
<path d="M690 744 c0 -50 3 -64 15 -64 11 0 15 12 15 44 0 37 5 48 27 64 l26
19 -41 0 -42 0 0 -63z"/>
<path d="M790 790 c-57 -57 21 -143 85 -94 16 12 17 16 6 23 -9 6 -19 4 -28
-5 -18 -17 -25 -18 -41 -2 -16 16 -15 29 1 27 6 -1 29 -1 49 0 31 1 36 4 31
19 -19 52 -67 68 -103 32z m68 -17 c2 -9 -7 -13 -28 -13 -28 0 -31 2 -20 15
15 18 41 16 48 -2z"/>
<path d="M929 790 c-23 -19 -23 -19 -3 -20 11 0 25 5 31 11 13 13 43 5 43 -10
0 -5 -18 -12 -40 -16 -27 -4 -41 -13 -45 -26 -11 -33 12 -48 69 -47 l53 1 -5
51 c-2 28 -9 57 -14 64 -15 18 -63 15 -89 -8z m71 -64 c0 -18 -39 -31 -52 -18
-15 15 0 32 28 32 14 0 24 -6 24 -14z"/>
<path d="M1180 788 c-25 -28 -26 -62 0 -88 24 -24 63 -26 85 -4 22 22 11 30
-20 14 -20 -11 -27 -11 -40 0 -25 21 -17 30 23 29 57 -2 62 -1 55 19 -19 53
-68 68 -103 30z m68 -15 c2 -9 -7 -13 -28 -13 -28 0 -31 2 -20 15 15 18 41 16
48 -2z"/>
<path d="M1675 793 c34 -85 43 -122 31 -132 -7 -6 -16 -8 -19 -4 -4 3 -7 -1
-7 -10 0 -20 33 -23 48 -4 11 13 62 143 62 158 0 5 -6 9 -14 9 -7 0 -19 -20
-27 -47 l-13 -47 -19 47 c-11 26 -26 47 -34 47 -10 0 -13 -6 -8 -17z"/>
<path d="M2055 793 c34 -85 43 -122 31 -132 -7 -6 -16 -8 -19 -4 -4 3 -7 -1
-7 -10 0 -20 33 -23 48 -4 11 13 62 143 62 158 0 5 -6 9 -14 9 -7 0 -19 -20
-27 -47 l-13 -47 -19 47 c-11 26 -26 47 -34 47 -10 0 -13 -6 -8 -17z"/>
<path d="M2510 790 c-39 -39 -11 -110 44 -110 31 0 63 29 45 41 -8 4 -17 1
-24 -7 -11 -16 -35 -16 -47 1 -12 17 3 25 47 25 38 0 43 3 38 18 -19 52 -67
68 -103 32z m68 -17 c2 -9 -7 -13 -28 -13 -28 0 -31 2 -20 15 15 18 41 16 48
-2z"/>
<path d="M533 573 c-4 -10 -11 -22 -17 -26 -8 -6 -7 -10 2 -14 7 -3 12 -25 12
-59 0 -41 4 -54 15 -54 11 0 15 13 15 54 0 34 5 56 13 59 9 4 8 8 -3 16 -12 9
-12 11 3 17 9 3 14 10 11 15 -9 16 -44 10 -51 -8z"/>
<path d="M1120 505 c0 -69 3 -85 15 -85 12 0 15 14 15 63 l0 62 38 -62 c22
-38 44 -63 55 -63 15 0 17 11 17 85 0 71 -3 85 -16 85 -12 0 -15 -10 -13 -50
2 -27 0 -52 -3 -55 -3 -4 -21 19 -39 49 -20 33 -41 56 -51 56 -16 0 -18 -11
-18 -85z"/>
<path d="M1800 505 c0 -69 3 -85 15 -85 10 0 15 11 15 35 0 35 0 35 45 35 50
0 72 23 59 63 -10 31 -22 37 -81 37 l-53 0 0 -85z m88 59 c13 -3 22 -12 22
-23 0 -21 -19 -31 -56 -31 -20 0 -24 5 -24 28 0 30 12 35 58 26z"/>
<path d="M2200 580 c0 -5 7 -10 15 -10 8 0 15 5 15 10 0 6 -7 10 -15 10 -8 0
-15 -4 -15 -10z"/>
<path d="M2563 583 c-7 -3 -13 -11 -13 -18 0 -7 -6 -16 -12 -18 -10 -4 -10 -7
-1 -14 6 -5 13 -31 15 -58 3 -46 5 -50 31 -53 29 -4 37 12 12 22 -10 3 -15 19
-15 46 0 29 4 40 15 40 8 0 15 5 15 10 0 6 -6 10 -14 10 -8 0 -16 8 -18 18 -2
11 -9 17 -15 15z"/>
<path d="M600 484 c0 -49 3 -64 14 -64 11 0 16 14 18 47 2 38 8 50 26 59 28
14 19 21 -25 22 l-33 1 0 -65z"/>
<path d="M700 530 c-11 -11 -20 -31 -20 -45 0 -14 9 -34 20 -45 11 -11 31 -20
45 -20 14 0 34 9 45 20 11 11 20 31 20 45 0 14 -9 34 -20 45 -11 11 -31 20
-45 20 -14 0 -34 -9 -45 -20z m68 -12 c32 -32 1 -89 -37 -68 -26 13 -28 55 -3
69 22 13 26 13 40 -1z"/>
<path d="M830 484 c0 -50 3 -64 15 -64 11 0 15 12 15 49 0 35 4 51 16 55 26
10 34 -3 34 -55 0 -37 4 -49 15 -49 11 0 15 12 15 49 0 35 4 51 16 55 26 10
34 -3 34 -55 0 -37 4 -49 15 -49 19 0 21 100 3 118 -15 15 -55 16 -63 2 -4 -7
-11 -8 -18 -2 -7 5 -31 10 -54 9 l-43 0 0 -63z"/>
<path d="M1306 528 c-33 -46 -4 -108 49 -108 14 0 34 9 45 20 11 11 20 31 20
45 0 57 -83 88 -114 43z m72 -10 c28 -28 2 -88 -33 -74 -22 8 -29 34 -17 62
13 26 31 31 50 12z"/>
<path d="M1440 496 c0 -63 11 -75 68 -74 l42 0 0 64 c0 50 -3 64 -15 64 -11 0
-15 -12 -15 -49 0 -35 -4 -51 -16 -55 -26 -10 -34 3 -34 55 0 37 -4 49 -15 49
-11 0 -15 -13 -15 -54z"/>
<path d="M1580 485 c0 -51 3 -65 15 -65 11 0 15 12 15 49 0 35 4 51 16 55 26
10 34 -3 34 -55 0 -38 4 -49 15 -49 13 0 15 11 13 56 -3 66 -23 88 -58 66 -12
-7 -20 -8 -20 -2 0 5 -7 10 -15 10 -12 0 -15 -14 -15 -65z"/>
<path d="M1960 484 c0 -49 3 -64 14 -64 11 0 16 14 18 47 2 39 7 50 28 60 14
7 23 13 20 14 -3 1 -22 3 -42 4 l-38 4 0 -65z"/>
<path d="M2062 534 c-45 -31 -14 -114 43 -114 14 0 34 9 45 20 58 58 -20 142
-88 94z m66 -16 c32 -32 1 -89 -37 -68 -26 13 -28 55 -3 69 22 13 26 13 40 -1z"/>
<path d="M2200 477 c0 -43 -5 -78 -12 -85 -16 -16 -1 -29 20 -16 24 16 31 174
7 174 -12 0 -15 -14 -15 -73z"/>
<path d="M2270 530 c-11 -11 -20 -31 -20 -45 0 -53 69 -85 106 -48 20 21 4 29
-26 13 -16 -9 -25 -8 -36 1 -25 20 -15 29 31 26 41 -2 45 0 45 20 0 24 -34 53
-62 53 -10 0 -27 -9 -38 -20z m54 -6 c26 -10 18 -24 -14 -24 -30 0 -41 14 -17
23 6 3 13 6 14 6 1 1 8 -2 17 -5z"/>
<path d="M2410 530 c-27 -27 -26 -75 2 -94 30 -21 61 -20 81 2 21 23 21 32 2
32 -8 0 -15 -4 -15 -9 0 -15 -32 -22 -47 -10 -18 16 -13 59 9 73 13 8 21 6 36
-7 23 -21 32 -22 32 -2 0 35 -69 46 -100 15z"/>
</g>
</svg>
